<svg width="510" height="354" viewBox="0 0 510 354" fill="none" xmlns="http://www.w3.org/2000/svg">
<path fill-rule="evenodd" clip-rule="evenodd" d="M244.247 56.4254L237.32 59.7053V64.8329C237.32 67.6528 237.627 69.8343 238.003 69.6796C238.379 69.5257 241.78 68.101 245.56 66.5132L252.433 63.6269V58.3134C252.433 55.391 252.149 53.0328 251.803 53.0723C251.457 53.1127 248.056 54.6206 244.247 56.4254ZM257.471 58.3134V63.6269L264.344 66.5132C268.124 68.101 271.524 69.5257 271.9 69.6796C272.276 69.8343 272.584 67.6477 272.584 64.8211V59.6818L265.397 56.3413C261.444 54.5037 258.044 53 257.841 53C257.637 53 257.471 55.391 257.471 58.3134ZM227.044 64.642L220.546 67.7175L220.537 72.6231C220.532 75.3219 220.835 77.4033 221.209 77.2486C221.585 77.0947 224.606 75.8332 227.924 74.4455L233.955 71.9225L233.959 66.6663C233.961 63.7758 233.867 61.4453 233.751 61.4882C233.636 61.5303 230.617 62.9499 227.044 64.642ZM244.247 70.4693L237.32 73.5886V78.4319C237.32 81.0962 237.604 83.2777 237.95 83.2794C238.295 83.2811 241.697 82.0616 245.506 80.5697L252.433 77.8566V72.5768C252.433 69.6729 252.149 67.3088 251.803 67.3239C251.457 67.3382 248.056 68.7536 244.247 70.4693ZM257.471 72.5533V77.8104L264.177 80.5428C267.866 82.0465 271.266 83.2761 271.734 83.2761C272.209 83.2761 272.584 81.1382 272.584 78.4294V73.5835L265.513 70.4398C261.625 68.7116 258.225 67.297 257.957 67.297C257.69 67.297 257.471 69.6628 257.471 72.5533ZM291.895 74.3194V78.8187L297.142 81.0524C300.029 82.2811 302.767 83.3787 303.228 83.4914C304.119 83.71 304.561 76.2545 303.725 75.1183C303.109 74.2824 293.838 69.82 292.716 69.82C292.264 69.82 291.895 71.8443 291.895 74.3194ZM275.951 80.1332L275.961 85.3786L282.122 87.6913C285.511 88.9629 288.53 90.0041 288.83 90.0041C289.13 90.0041 289.376 87.9133 289.376 85.3575C289.376 81.3207 289.128 80.6134 287.487 79.9659C286.447 79.5555 283.425 78.2452 280.77 77.0535L275.942 74.8871L275.951 80.1332ZM244.457 84.4619L237.74 87.1615L237.488 92.4514C237.349 95.3612 237.554 97.6092 237.944 97.4469C238.334 97.2855 241.753 96.0467 245.543 94.6943L252.433 92.2361V86.9151C252.433 83.9884 252.149 81.6319 251.803 81.679C251.457 81.7252 248.151 82.9775 244.457 84.4619ZM257.471 86.9151V92.2361L264.36 94.6943C268.15 96.0467 271.569 97.2855 271.96 97.4469C272.349 97.6092 272.554 95.352 272.416 92.4312L272.164 87.122L265.075 84.3576C261.176 82.8379 257.869 81.5941 257.728 81.5941C257.586 81.5941 257.471 83.9884 257.471 86.9151ZM185.054 84.8092L180.226 87.0194V91.0343C180.226 93.2428 180.617 95.0501 181.093 95.0501C181.571 95.0501 183.838 94.0972 186.131 92.9333C190.291 90.8224 190.301 90.8064 190.301 86.6258C190.301 84.3206 190.207 82.4721 190.092 82.5175C189.976 82.5629 187.71 83.594 185.054 84.8092ZM211.506 84.8168L206.263 87.0606L206.258 91.5322C206.253 96.5925 206.043 96.5479 214.021 93.1679L218.009 91.4792V86.9571C218.009 84.4703 217.725 82.4662 217.379 82.504C217.033 82.5427 214.39 83.583 211.506 84.8168ZM291.895 86.9714V91.5069L297.361 93.6994C300.367 94.9046 303.17 95.8911 303.589 95.8911C304.298 95.8911 304.261 87.7914 303.55 87.1203C303.111 86.7048 292.894 82.4351 292.34 82.4351C292.095 82.4351 291.895 84.4762 291.895 86.9714ZM319.602 87.0463C319.602 90.7223 319.706 90.8695 323.772 92.9333C326.065 94.0972 328.353 95.0501 328.856 95.0501C329.421 95.0501 329.672 93.5321 329.514 91.062C329.269 87.2557 329.085 86.9899 325.479 85.2247C320.042 82.5637 319.602 82.7 319.602 87.0463ZM197.648 90.6819L192.82 92.7869V97.2939V101.801L195.969 100.446C197.701 99.7008 200.156 98.7126 201.426 98.2501C203.512 97.4898 203.735 97.0138 203.735 93.3353C203.735 91.0948 203.451 89.1084 203.106 88.92C202.76 88.7316 200.303 89.5247 197.648 90.6819ZM227.035 91.0385L220.528 93.5876V98.6134C220.528 103.056 220.699 103.574 221.997 103.075C222.805 102.764 225.828 101.684 228.714 100.675L233.961 98.8405V93.5808C233.961 90.6886 233.867 88.3599 233.751 88.4062C233.636 88.4524 230.614 89.6365 227.035 91.0385ZM275.946 93.6591L275.95 98.8346L282.195 101.056C285.63 102.278 288.65 103.066 288.907 102.807C289.165 102.55 289.376 100.519 289.376 98.2955C289.376 93.7953 288.991 93.4496 280.273 90.1319L275.942 88.4835L275.946 93.6591ZM184.634 96.3637L180.226 98.3813V102.533V106.684L185.054 104.816L189.882 102.947L190.135 98.5781C190.275 96.1753 190.087 94.2402 189.715 94.278C189.345 94.3159 187.059 95.2544 184.634 96.3637ZM319.602 98.457C319.602 102.469 319.756 102.77 322.377 103.866C323.903 104.505 326.17 105.284 327.415 105.597C329.629 106.154 329.677 106.082 329.677 102.243V98.3216L325.035 96.2653C322.483 95.1342 320.216 94.2091 319.997 94.2091C319.78 94.2091 319.602 96.1207 319.602 98.457ZM211.502 97.3048L206.254 99.4023V103.954C206.254 106.457 206.348 108.5 206.464 108.492C206.58 108.484 209.13 107.582 212.131 106.487L217.589 104.495L217.841 99.7731C217.979 97.1753 217.79 95.0854 217.421 95.1291C217.052 95.172 214.388 96.1509 211.502 97.3048ZM291.895 99.5368V104.138L297.473 106.297C300.541 107.484 303.34 108.277 303.694 108.058C304.047 107.839 304.311 105.91 304.278 103.772C304.22 99.9212 304.179 99.8665 299.947 98.002C291.66 94.3504 291.895 94.3058 291.895 99.5368ZM244.457 98.3376L237.74 100.652L237.487 105.947C237.293 110.018 237.487 111.148 238.327 110.834C238.928 110.609 242.347 109.561 245.926 108.503L252.433 106.579V101.235C252.433 98.2955 252.149 95.9205 251.803 95.9567C251.457 95.9928 248.151 97.0643 244.457 98.3376ZM257.471 101.178V106.579L263.978 108.503C267.556 109.561 270.976 110.609 271.577 110.834C272.417 111.148 272.61 110.02 272.417 105.954L272.164 100.665L266.567 98.7782C263.489 97.7396 260.183 96.6404 259.22 96.3343C257.571 95.8095 257.471 96.0879 257.471 101.178ZM331.357 103.276V107.436L335.341 109.022C337.532 109.895 339.61 110.735 339.958 110.889C340.307 111.043 340.592 109.297 340.592 107.008V102.848L336.608 101.262C334.417 100.39 332.339 99.5494 331.99 99.3955C331.642 99.2408 331.357 100.988 331.357 103.276ZM197.228 102.786L192.82 104.526V109.014V113.502L198.068 111.632L203.315 109.763L203.569 105.35C203.861 100.268 203.735 100.218 197.228 102.786ZM306.498 102.268C306.779 102.999 307.008 105.005 307.008 106.725C307.008 109.785 307.116 109.892 312.045 111.668L317.083 113.484V109.009V104.535L312.391 102.736C306.784 100.587 305.825 100.511 306.498 102.268ZM227.244 104.144L220.947 106.404L220.692 111.35C220.464 115.776 220.596 116.25 221.952 115.868C222.784 115.634 225.827 114.732 228.713 113.866L233.959 112.291L233.961 107.034C233.961 104.144 233.867 101.802 233.751 101.831C233.636 101.86 230.708 102.901 227.244 104.144ZM162.804 105.96C159.376 107.52 159.236 107.732 159.236 111.362V115.141L163.434 113.393C167.564 111.674 167.632 111.587 167.632 107.974C167.632 105.954 167.349 104.31 167.002 104.32C166.655 104.33 164.766 105.068 162.804 105.96ZM319.602 110.109C319.602 114.206 319.627 114.243 323.17 115.486C325.133 116.175 327.399 117.008 328.208 117.337C329.491 117.861 329.677 117.406 329.677 113.754V109.572L325.368 107.777C322.997 106.79 320.73 105.983 320.33 105.983C319.929 105.983 319.602 107.84 319.602 110.109ZM292.059 112.319L292.315 117.188L297.969 119.095C301.079 120.144 303.795 120.723 304.006 120.383C304.57 119.469 304.38 113.048 303.762 112.095C303.469 111.646 301.151 110.599 298.612 109.769C296.072 108.94 293.501 108.079 292.899 107.856C292.062 107.546 291.865 108.594 292.059 112.319ZM173.299 112.043C169.411 113.719 169.311 113.854 169.311 117.442C169.311 121.605 169.687 121.759 174.951 119.745C178.505 118.385 178.547 118.321 178.547 114.279C178.547 112.029 178.264 110.218 177.917 110.256C177.57 110.293 175.492 111.098 173.299 112.043ZM244.247 112.475L237.32 114.669V119.577C237.32 122.664 237.672 124.485 238.269 124.485C238.79 124.485 242.19 123.669 245.825 122.671L252.433 120.857V115.523C252.433 112.588 252.149 110.209 251.803 110.234C251.457 110.26 248.056 111.268 244.247 112.475ZM257.471 115.528V120.866L264.397 122.687C268.207 123.689 271.608 124.503 271.954 124.497C272.3 124.49 272.584 122.293 272.584 119.612V114.74L265.606 112.464C261.769 111.212 258.369 110.188 258.05 110.188C257.732 110.188 257.471 112.591 257.471 115.528ZM331.357 114.189C331.357 118.337 331.384 118.38 334.953 119.745C340.219 121.759 340.592 121.606 340.592 117.428C340.592 113.456 341.101 113.891 332.406 110.426C331.651 110.126 331.357 111.182 331.357 114.189ZM197.648 114.529L192.82 116.216V120.695V125.174L198.278 123.397L203.735 121.619V117.165C203.735 114.715 203.451 112.741 203.106 112.778C202.76 112.814 200.303 113.603 197.648 114.529ZM342.272 118.208C342.272 121.938 342.356 122.059 346.12 123.674C348.236 124.583 350.125 125.326 350.318 125.326C350.51 125.326 350.668 123.61 350.668 121.511C350.668 117.782 350.583 117.66 346.82 116.045C344.703 115.137 342.814 114.393 342.622 114.393C342.429 114.393 342.272 116.11 342.272 118.208ZM225.775 117.919L220.528 119.585V124.138C220.528 129.396 220.445 129.364 228.541 127.326L233.961 125.963V121.019C233.961 115.29 234.003 115.306 225.775 117.919ZM275.942 121.019V125.963L281.363 127.326C289.449 129.361 289.376 129.39 289.376 124.187V119.684L283.289 117.877C279.94 116.883 276.918 116.071 276.572 116.073C276.226 116.074 275.942 118.3 275.942 121.019ZM184.214 119.247L180.226 120.575V124.633C180.226 126.864 180.476 128.69 180.782 128.69C181.088 128.69 183.354 128.053 185.82 127.275L190.301 125.86V121.808C190.301 117.273 190.23 117.242 184.214 119.247ZM319.602 121.808V125.86L324.084 127.275C326.549 128.053 328.816 128.69 329.122 128.69C329.427 128.69 329.677 126.873 329.677 124.652V120.612L325.689 119.181C319.86 117.088 319.602 117.199 319.602 121.808ZM352.347 122.304C352.347 125.943 352.414 126.032 356.125 127.298L359.903 128.588V124.946C359.903 121.479 359.741 121.239 356.528 119.951C354.672 119.207 352.972 118.598 352.75 118.598C352.528 118.598 352.347 120.266 352.347 122.304ZM291.895 125.298V130.168L297.315 131.531C300.296 132.281 303.08 132.895 303.502 132.895C303.923 132.895 304.224 130.925 304.169 128.517L304.069 124.139L297.982 122.283L291.895 120.428V125.298ZM210.662 122.558L206.254 123.859V128.377C206.254 130.873 206.635 132.895 207.106 132.895C207.575 132.895 210.22 132.265 212.984 131.496L218.009 130.096V125.609C218.009 120.476 217.887 120.426 210.662 122.558ZM172.67 123.148C169.947 124.129 169.712 124.494 169.475 128.13C169.335 130.288 169.55 132.054 169.955 132.054C170.36 132.054 172.459 131.451 174.619 130.714C178.5 129.389 178.547 129.328 178.547 125.668C178.547 121.525 177.922 121.257 172.67 123.148ZM331.357 125.562C331.357 129.349 331.382 129.381 335.284 130.714C337.445 131.451 339.523 132.054 339.902 132.054C340.282 132.054 340.592 130.342 340.592 128.249C340.592 124.189 339.728 123.436 333.666 122.216C331.418 121.764 331.357 121.854 331.357 125.562ZM243.827 126.343L237.32 128.038V133.5C237.32 137.574 237.591 138.858 238.388 138.552C238.975 138.326 242.375 137.49 245.944 136.696L252.433 135.249V129.868C252.433 123.721 253.002 123.954 243.827 126.343ZM257.471 129.868V135.249L263.959 136.696C267.528 137.49 270.929 138.326 271.516 138.552C272.312 138.858 272.584 137.575 272.584 133.509V128.056L265.477 126.271C261.569 125.288 258.168 124.485 257.921 124.485C257.673 124.485 257.471 126.907 257.471 129.868ZM162.384 126.721C159.422 127.952 159.236 128.248 159.236 131.724C159.236 133.755 159.331 135.412 159.446 135.406C159.561 135.398 161.356 134.886 163.434 134.266C167.145 133.158 167.216 133.069 167.468 129.233C167.756 124.838 167.372 124.648 162.384 126.721ZM306.65 129.305C307.126 133.926 307.174 133.983 311.723 135.276C316.936 136.759 317.083 136.672 317.083 132.114V127.969L312.546 126.647C306.168 124.79 306.185 124.783 306.65 129.305ZM342.435 129.233C342.687 133.069 342.759 133.158 346.47 134.266C348.548 134.886 350.343 135.398 350.458 135.406C350.573 135.412 350.668 133.756 350.668 131.725C350.668 128.198 350.516 127.971 347.292 126.679C342.413 124.724 342.149 124.863 342.435 129.233ZM184.634 130.171L180.226 131.456V135.54C180.226 140.078 180.1 140.011 186.04 138.638L190.301 137.653V133.171C190.301 130.707 190.019 128.734 189.672 128.788C189.325 128.842 187.059 129.465 184.634 130.171ZM319.602 133.081V137.653L323.864 138.638C329.805 140.012 329.677 140.08 329.677 135.518V131.412L326.007 130.487C323.989 129.978 321.722 129.325 320.97 129.036C319.809 128.59 319.602 129.203 319.602 133.081ZM225.985 131.071L220.947 132.476L220.692 137.421C220.444 142.222 220.494 142.351 222.371 141.848C223.435 141.563 226.479 140.896 229.134 140.367L233.961 139.404V134.468C233.961 128.789 234.042 128.824 225.985 131.071ZM275.942 134.443V139.356L280.77 140.403C283.425 140.979 286.468 141.652 287.532 141.901C289.403 142.336 289.457 142.19 289.211 137.414L288.956 132.476L283.918 131.071C275.866 128.825 275.942 128.793 275.942 134.443ZM172.46 133.991C169.376 134.856 169.311 134.958 169.311 138.946C169.311 142.968 169.341 143.012 171.62 142.446C178.447 140.752 178.11 141.032 178.383 136.834C178.668 132.444 178.412 132.322 172.46 133.991ZM331.52 136.834C331.793 141.032 331.456 140.752 338.283 142.446C340.561 143.012 340.592 142.965 340.592 138.972V134.926L336.802 133.91C331.294 132.435 331.237 132.466 331.52 136.834ZM214.23 134.178C213.769 134.348 211.786 134.9 209.822 135.406L206.254 136.324V140.974C206.254 144.995 206.452 145.569 207.723 145.22C208.532 144.998 211.176 144.366 213.601 143.818L218.009 142.82V138.278C218.009 133.711 217.373 133.022 214.23 134.178ZM291.895 138.199V142.85L297.556 144.144C300.67 144.855 303.528 145.127 303.908 144.747C304.287 144.367 304.478 142.397 304.333 140.368C304.089 136.959 303.84 136.605 301.037 135.688C299.37 135.143 296.631 134.439 294.95 134.123L291.895 133.549V138.199ZM200.797 137.542C200.335 137.712 198.352 138.264 196.389 138.77L192.82 139.688V143.968V148.248L196.129 147.718C203.011 146.616 203.735 146.007 203.735 141.326C203.735 137.236 203.268 136.633 200.797 137.542ZM244.037 140.404L237.74 141.811L237.487 147.127C237.241 152.301 237.285 152.429 239.166 151.968C240.229 151.708 243.648 151.028 246.765 150.459L252.433 149.424V144.103C252.433 140.35 252.124 138.813 251.383 138.889C250.807 138.948 247.5 139.629 244.037 140.404ZM257.471 144.103V149.424L263.138 150.459C266.255 151.028 269.674 151.708 270.737 151.968C272.617 152.429 272.663 152.3 272.417 147.142L272.164 141.841L265.447 140.36C261.753 139.545 258.446 138.857 258.1 138.83C257.754 138.804 257.471 141.176 257.471 144.103ZM352.347 142.434C352.347 145.944 352.472 146.122 355.593 147.059C360.036 148.392 359.903 148.475 359.903 144.382C359.903 140.871 359.778 140.693 356.658 139.756C352.214 138.423 352.347 138.341 352.347 142.434ZM184.424 141.635L180.646 142.64L180.39 147.09C180.162 151.044 180.303 151.491 181.649 151.098C182.483 150.855 184.771 150.241 186.733 149.733L190.301 148.809V144.636C190.301 140.039 190.343 140.06 184.424 141.635ZM319.768 144.82L320.022 149.175L324.64 150.25C327.18 150.842 329.372 151.342 329.511 151.362C329.651 151.381 329.651 149.433 329.511 147.033L329.258 142.669L325.059 141.583C322.751 140.986 320.558 140.489 320.188 140.48C319.817 140.472 319.628 142.424 319.768 144.82ZM227.664 143.816C226.279 144.19 224.107 144.731 222.836 145.018C220.662 145.512 220.528 145.81 220.528 150.152C220.528 152.831 220.9 154.761 221.415 154.761C221.904 154.761 224.926 154.327 228.132 153.797L233.961 152.833V147.91C233.961 142.492 233.559 142.23 227.664 143.816ZM275.942 147.888V152.788L281.286 153.775C289.612 155.311 289.376 155.417 289.376 150.152C289.376 146.059 289.164 145.494 287.487 145.112C281.275 143.699 277.916 143.026 276.992 143.007C276.27 142.994 275.942 144.517 275.942 147.888ZM162.384 147.363C159.338 148.173 159.236 148.322 159.236 151.975V155.75L162.804 155.159C167.616 154.361 167.632 154.344 167.632 150.086C167.632 146.038 167.541 145.99 162.384 147.363ZM210.242 147.382L206.254 148.215V153.068V157.922L210.242 157.145C218.706 155.495 218.009 156.05 218.009 150.961C218.009 145.76 218.011 145.761 210.242 147.382ZM291.895 150.961C291.895 156.053 291.185 155.492 299.722 157.157C302.911 157.78 303.863 157.705 304.209 156.804C304.602 155.775 303.974 148.877 303.445 148.419C303.065 148.09 294.377 146.351 293.113 146.351C292.197 146.351 291.895 147.493 291.895 150.961ZM342.272 150.086C342.272 154.344 342.288 154.361 347.099 155.159L350.668 155.75V151.992C350.668 148.246 350.655 148.23 346.937 147.292C344.886 146.774 342.997 146.351 342.739 146.351C342.482 146.351 342.272 148.031 342.272 150.086ZM200.797 149.507C192.861 151.096 192.82 151.128 192.82 155.73V159.998L196.808 159.435C203.72 158.457 203.735 158.446 203.735 153.913C203.735 149.506 203.389 148.987 200.797 149.507ZM306.921 149.084C306.873 149.2 306.779 151.286 306.711 153.72C306.575 158.602 306.456 158.496 313.095 159.435L317.083 159.998V155.714C317.083 151.723 316.924 151.395 314.774 150.923C313.505 150.644 311.37 150.07 310.031 149.645C307.433 148.822 307.057 148.755 306.921 149.084ZM352.347 152.659C352.347 154.74 352.631 156.452 352.977 156.463C353.323 156.474 355.024 156.813 356.755 157.216L359.903 157.948V154.292C359.903 150.783 359.777 150.6 356.755 149.76C352.293 148.518 352.347 148.483 352.347 152.659ZM183.794 153.219L180.226 154.019V158.241V162.464L182.745 161.976C184.13 161.709 186.397 161.27 187.783 161.002C190.174 160.539 190.301 160.305 190.301 156.377C190.301 151.778 190.275 151.765 183.794 153.219ZM319.602 156.377C319.602 160.305 319.73 160.539 322.121 161.002C323.506 161.27 325.773 161.709 327.159 161.976L329.677 162.464V158.261V154.06L325.438 153.149C319.478 151.868 319.602 151.799 319.602 156.377ZM246.556 153.982C244.478 154.376 241.549 154.919 240.049 155.188C237.33 155.676 237.32 155.697 237.32 160.686C237.32 166.401 236.761 166.142 246.101 164.751L252.433 163.808V158.443C252.433 154.664 252.123 153.106 251.383 153.172C250.807 153.222 248.634 153.586 246.556 153.982ZM257.471 158.443V163.808L263.802 164.751C273.146 166.143 272.584 166.406 272.584 160.648C272.584 157.873 272.489 155.601 272.374 155.601C272.259 155.601 268.952 155.033 265.027 154.341C261.102 153.649 257.795 153.081 257.68 153.08C257.565 153.08 257.471 155.493 257.471 158.443ZM172.04 155.702C169.472 156.445 169.311 156.72 169.311 160.347V164.203L173.299 163.605C175.492 163.276 177.57 162.833 177.917 162.619C178.264 162.406 178.547 160.551 178.547 158.496C178.547 154.364 177.79 154.04 172.04 155.702ZM331.357 158.966C331.357 162.407 331.624 163.173 332.826 163.18C333.634 163.185 335.712 163.424 337.444 163.711L340.592 164.233V160.377C340.592 156.639 340.497 156.495 337.444 155.647C331.749 154.062 331.357 154.276 331.357 158.966ZM225.355 157.488L220.528 158.316V163.334V168.351L222.836 167.908C224.107 167.665 227.129 167.221 229.553 166.921L233.961 166.377V161.41C233.961 155.769 234.347 155.944 225.355 157.488ZM161.125 157.878C159.495 158.192 159.236 158.769 159.236 162.075V165.909L162.724 165.35C167.434 164.596 167.632 164.404 167.632 160.599C167.632 157.515 167.471 157.293 165.323 157.399C164.053 157.462 162.164 157.677 161.125 157.878ZM342.272 160.599C342.272 164.404 342.47 164.596 347.179 165.35L350.668 165.909V162.122C350.668 158.554 350.517 158.305 348.044 157.81C342.774 156.754 342.272 156.997 342.272 160.599ZM210.662 159.971L206.254 160.777V165.38V169.982L211.502 169.41C214.388 169.095 217.033 168.676 217.379 168.478C217.725 168.279 218.009 166.059 218.009 163.542C218.009 158.415 218.328 158.571 210.662 159.971ZM291.895 163.506C291.895 168.681 291.793 168.602 299.565 169.513L304.295 170.069V165.721C304.295 160.777 303.884 160.456 296.303 159.478L291.895 158.908V163.506ZM198.278 162.04C192.469 163.27 192.82 162.92 192.82 167.489V171.775L197.648 171.173C200.303 170.843 202.76 170.399 203.106 170.186C203.451 169.974 203.735 167.93 203.735 165.645C203.735 161.22 203.35 160.966 198.278 162.04ZM306.962 161.625C306.597 163.884 306.592 169.217 306.953 169.777C307.214 170.182 309.601 170.781 312.255 171.108L317.083 171.702V167.493C317.083 164.204 316.762 163.194 315.614 162.868C313.302 162.215 307.013 161.311 306.962 161.625ZM182.535 164.614C180.366 164.944 180.226 165.223 180.226 169.224V173.484L183.375 172.962C185.107 172.675 187.374 172.437 188.412 172.431C190.118 172.423 190.301 172.014 190.301 168.217V164.012L187.573 164.138C186.071 164.207 183.805 164.422 182.535 164.614ZM172.04 166.302C169.371 166.634 169.311 166.733 169.311 170.845V175.049L173.299 174.469C175.492 174.15 177.57 173.727 177.917 173.527C178.264 173.327 178.547 171.484 178.547 169.429C178.547 165.357 178.773 165.465 172.04 166.302ZM331.357 169.319C331.357 171.434 331.64 173.327 331.986 173.527C332.332 173.727 334.41 174.15 336.604 174.469L340.592 175.049V170.792C340.592 167.302 340.328 166.534 339.123 166.526C338.314 166.521 336.237 166.282 334.505 165.995L331.357 165.474V169.319ZM161.545 167.978C159.389 168.306 159.236 168.602 159.236 172.426V176.521L162.384 176.082C167.506 175.367 167.632 175.25 167.632 171.187C167.632 167.064 167.618 167.057 161.545 167.978ZM247.815 167.798C247.353 167.958 244.802 168.334 242.148 168.633L237.32 169.179V174.165V179.15L240.468 179.143C242.201 179.139 245.6 178.897 248.025 178.605L252.433 178.075V172.726C252.433 167.719 252.312 167.38 250.544 167.443C249.504 167.479 248.277 167.639 247.815 167.798ZM257.471 172.63V178.075L261.879 178.605C264.303 178.897 267.704 179.139 269.435 179.143L272.584 179.15V174.2V169.249L268.805 168.734C266.727 168.449 263.327 167.985 261.249 167.701L257.471 167.185V172.63ZM342.272 171.187C342.272 175.25 342.398 175.367 347.519 176.082L350.668 176.521V172.479C350.668 168.462 350.648 168.434 347.519 167.916C342.318 167.055 342.272 167.084 342.272 171.187ZM152.729 169.666C150.111 169.992 150 170.157 150 173.737C150 177.737 150.229 177.885 154.933 176.943C157.392 176.45 157.557 176.186 157.557 172.738C157.557 170.283 157.207 169.103 156.507 169.193C155.93 169.267 154.23 169.48 152.729 169.666ZM228.084 170.361C227.391 170.508 225.408 170.86 223.676 171.143L220.528 171.658V176.245C220.528 181.425 220.078 181.205 228.8 180.292L233.961 179.752V174.826C233.961 169.988 233.919 169.901 231.652 169.997C230.382 170.051 228.777 170.215 228.084 170.361ZM212.551 172.148C206.21 172.941 206.254 172.9 206.254 177.995C206.254 181.935 206.469 182.612 207.582 182.184C208.313 181.903 210.958 181.673 213.46 181.673H218.009V176.627C218.009 171.164 218.329 171.426 212.551 172.148ZM291.895 176.15C291.895 178.671 292.179 180.906 292.524 181.117C292.87 181.329 295.61 181.635 298.612 181.798L304.069 182.094L304.145 178.056C304.233 173.325 303.696 172.894 296.723 172.109L291.895 171.567V176.15ZM197.438 174.026L193.24 174.525L192.987 178.94C192.702 183.89 192.574 183.818 199.839 182.82L203.735 182.285V177.774C203.735 174.656 203.411 173.304 202.686 173.395C202.109 173.468 199.747 173.752 197.438 174.026ZM306.926 174.418C306.806 175.822 307.132 182.064 307.337 182.277C307.434 182.378 309.667 182.714 312.298 183.024L317.083 183.587V179.239C317.083 174.458 317.058 174.436 310.996 173.854C308.397 173.603 306.979 173.8 306.926 174.418ZM319.766 179.302L320.022 183.776L324.85 184.028L329.677 184.28V180.428C329.677 176.213 329.649 176.19 323.544 175.37L319.51 174.828L319.766 179.302ZM171.576 177.234C169.341 177.571 169.236 177.784 169.477 181.51L169.731 185.433L173.508 185.156C175.585 185.003 177.569 184.703 177.915 184.488C178.263 184.273 178.547 182.417 178.547 180.362C178.547 176.3 178.352 176.213 171.576 177.234ZM331.357 180.832V185.037H335.974H340.592V181.363C340.592 177.77 340.523 177.677 337.444 177.167C331.425 176.171 331.357 176.212 331.357 180.832ZM159.796 178.87C159.488 179.178 159.236 181.111 159.236 183.165C159.236 186.225 159.476 186.807 160.564 186.389C161.294 186.108 163.184 185.878 164.762 185.878C167.603 185.878 167.632 185.841 167.632 182.094V178.309H163.994C161.992 178.309 160.103 178.562 159.796 178.87ZM342.272 182.047C342.272 185.847 342.295 185.878 345.141 185.878C346.72 185.878 348.632 186.117 349.39 186.408C350.572 186.862 350.732 186.353 350.508 182.834L350.248 178.73L346.26 178.473L342.272 178.217V182.047ZM352.347 182.935C352.347 186.295 352.559 186.721 354.236 186.731C355.275 186.737 356.975 186.971 358.014 187.249C359.768 187.72 359.903 187.486 359.903 183.979C359.903 180.421 359.751 180.171 357.28 179.676C352.568 178.732 352.347 178.878 352.347 182.935ZM242.148 182.295L237.32 182.598V188.137V193.676L241.216 193.141C243.357 192.847 246.758 192.606 248.772 192.606H252.433V187.14V181.673L249.704 181.832C248.204 181.92 244.802 182.128 242.148 182.295ZM257.471 187.023V192.606H261.131C263.146 192.606 266.546 192.847 268.688 193.141L272.584 193.676V188.095V182.514L269.435 182.507C267.704 182.503 264.303 182.261 261.879 181.969L257.471 181.439V187.023ZM223.636 183.97L220.447 184.302L220.697 188.885C220.835 191.404 221.231 193.462 221.577 193.457C221.923 193.451 224.852 193.447 228.084 193.447H233.961V188.401V183.355L230.393 183.497C228.43 183.575 225.39 183.788 223.636 183.97ZM275.942 188.401V193.447L281.4 193.573C284.401 193.643 287.33 193.737 287.907 193.784C288.605 193.84 289.039 192.29 289.205 189.154L289.452 184.439L285.007 183.904C275.718 182.788 275.942 182.676 275.942 188.401ZM211.082 184.818L206.254 185.121V189.705V194.288H212.131H218.009V189.242C218.009 185.681 217.7 184.243 216.959 184.355C216.382 184.443 213.737 184.651 211.082 184.818ZM291.895 189.339V194.288H298.035H304.175L304.335 190.714C304.423 188.748 304.21 186.721 303.863 186.21C303.514 185.697 300.68 185.078 297.562 184.835L291.895 184.39V189.339ZM193.87 186.435C193.228 186.695 192.82 188.481 192.82 191.034V195.209L198.068 194.959L203.315 194.709L203.569 190.293L203.823 185.878L199.371 185.945C196.923 185.981 194.447 186.202 193.87 186.435ZM181.695 187.299C180.547 187.6 180.226 188.588 180.226 191.827C180.226 196.417 180.46 196.539 187.153 195.43C190.289 194.911 190.301 194.893 190.301 190.814V186.719L186.733 186.817C184.771 186.871 182.503 187.088 181.695 187.299ZM319.602 190.845V194.971L323.761 195.545C326.049 195.859 328.316 195.873 328.799 195.573C329.282 195.275 329.677 193.393 329.677 191.394C329.677 187.353 328.787 186.753 322.751 186.731L319.602 186.719V190.845ZM171.2 188.154C169.576 188.467 169.311 189.047 169.311 192.288V196.059L173.719 195.804L178.127 195.55L178.383 191.555L178.639 187.56L175.864 187.675C174.338 187.738 172.239 187.953 171.2 188.154ZM331.357 191.765V195.97H335.974H340.592V192.284C340.592 188.248 339.691 187.596 334.085 187.572C331.369 187.56 331.357 187.58 331.357 191.765ZM150 193.027V196.811H153.778H157.557V193.027V189.242H153.778H150V193.027ZM352.347 192.979V196.811H356.173H360L359.741 193.237C359.484 189.68 359.466 189.662 355.915 189.405L352.347 189.146V192.979ZM241.308 196.588L237.32 196.904V201.904V206.903H244.876H252.433V201.437V195.97L248.865 196.122C246.902 196.205 243.501 196.415 241.308 196.588ZM257.471 201.437V206.903H265.027H272.584V201.979V197.054L266.916 196.519C256.782 195.56 257.471 195.202 257.471 201.437ZM221.088 197.372C220.779 197.68 220.528 199.951 220.528 202.418V206.903H227.244H233.961V201.857V196.811H227.804C224.417 196.811 221.395 197.064 221.088 197.372ZM275.942 201.857V206.974L282.449 206.728L288.956 206.483V201.857V197.232L282.449 196.986L275.942 196.741V201.857ZM192.82 202.278V206.903H198.278H203.735V202.278V197.652H198.278H192.82V202.278ZM206.254 202.278V206.903H212.131H218.009V202.278V197.652H212.131H206.254V202.278ZM291.895 202.278V206.977L297.982 206.73L304.069 206.483V202.278V198.073L297.982 197.826L291.895 197.578V202.278ZM307.427 198.495C307.283 198.727 307.042 200.619 306.89 202.7L306.615 206.483L311.849 206.733L317.083 206.983V202.528V198.073H312.386C309.801 198.073 307.569 198.263 307.427 198.495ZM169.311 202.698V206.903H173.929H178.547V202.698V198.493H173.929H169.311V202.698ZM180.226 202.698V206.903H185.264H190.301V202.698V198.493H185.264H180.226V202.698ZM319.602 202.698V206.903H324.64H329.677V202.698V198.493H324.64H319.602V202.698ZM331.357 202.698V206.903H335.974H340.592V202.698V198.493H335.974H331.357V202.698ZM150 203.167V207L153.568 206.741C157.119 206.484 157.138 206.465 157.394 202.909L157.653 199.334H153.826H150V203.167ZM159.236 203.165V206.996L163.224 206.739L167.212 206.483L167.47 202.909L167.728 199.334H163.482H159.236V203.165ZM342.272 203.119V206.903H346.47H350.668V203.119V199.334H346.47H342.272V203.119Z" fill="#312A2A"/>
<path d="M31.25 237.5H40.8C43.3 237.5 44.5 238.8 44.6 241.25L45.8 272H36.05L35 245.6H34.25L30.85 263.2C30.5 265.4 29.05 266.5 26.75 266.5H21.15C18.85 266.5 17.4 265.4 17 263.2L13.55 245.6H12.8L11.95 272H2.2L3.4 241.25C3.5 238.8 4.7 237.5 7.2 237.5H16.55C18.8 237.5 20.25 238.6 20.65 240.85L23.15 254.55C23.4 256.25 23.55 258 23.7 259.7H24.15C24.35 258 24.5 256.25 24.75 254.55L27.1 240.85C27.5 238.6 28.95 237.5 31.25 237.5ZM69.798 264.55H60.348L58.598 272H47.548L56.498 240.3C56.948 238.6 58.398 237.5 60.148 237.5H69.998C71.748 237.5 73.198 238.6 73.648 240.3L82.598 272H71.548L69.798 264.55ZM68.048 256.95L66.348 249.55C66.098 248.3 65.848 246.85 65.748 245.6H64.398C64.248 246.85 64.048 248.3 63.798 249.55L62.098 256.95H68.048ZM115.379 237.5V272H104.529V257.5H95.8289V272H84.9789V237.5H95.8289V249.9H104.529V237.5H115.379ZM149.713 237.5L142.213 262.65C140.313 269.2 138.263 272.15 132.713 272.7C129.713 273 124.613 272.4 122.063 272L123.213 264.6C128.563 264.7 130.713 265 131.313 263.2L131.513 262.4H129.463C126.263 262.4 124.863 260.5 124.063 257.7L117.863 237.5H128.963L132.863 254.25C132.913 254.6 133.263 254.8 133.663 254.8H134.113L138.613 237.5H149.713ZM176.227 235.3V239.45C187.777 240.25 191.927 244.05 191.927 254.25C191.927 264.1 187.777 267.75 176.227 268.55V272.7H165.377V268.55C153.827 267.8 149.677 264.1 149.677 254.25C149.677 244.05 153.827 240.25 165.377 239.45V235.3H176.227ZM165.877 260.95V247.05C161.327 247.55 160.527 249.25 160.527 254.25C160.527 258.9 161.327 260.5 165.877 260.95ZM175.727 247.05V260.95C180.227 260.5 181.077 258.9 181.077 254.25C181.077 249.25 180.227 247.55 175.727 247.05ZM214.036 264.55H204.586L202.836 272H191.786L200.736 240.3C201.186 238.6 202.636 237.5 204.386 237.5H214.236C215.986 237.5 217.436 238.6 217.886 240.3L226.836 272H215.786L214.036 264.55ZM212.286 256.95L210.586 249.55C210.336 248.3 210.086 246.85 209.986 245.6H208.636C208.486 246.85 208.286 248.3 208.036 249.55L206.336 256.95H212.286ZM248.417 253.85V254.15C255.717 255.25 255.867 256.9 260.167 272H248.867C245.317 258.8 245.267 257.6 240.817 257.6H239.667C239.917 258.7 240.067 259.8 240.067 260.75V272H229.217V237.5H240.067V246.2C240.067 247.6 239.917 249.15 239.567 250.6H240.667C245.217 250.6 245.517 248.45 248.167 237.5H259.167C255.217 250.8 255.517 252.85 248.417 253.85ZM291.05 245.6H281.4V272H270.55V245.6H260.9V237.5H291.05V245.6ZM323.053 237.5L315.553 262.65C313.653 269.2 311.603 272.15 306.053 272.7C303.053 273 297.953 272.4 295.403 272L296.553 264.6C301.903 264.7 304.053 265 304.653 263.2L304.853 262.4H302.803C299.603 262.4 298.203 260.5 297.403 257.7L291.203 237.5H302.303L306.203 254.25C306.253 254.6 306.603 254.8 307.003 254.8H307.453L311.953 237.5H323.053ZM325.505 272V237.5C330.105 237.05 333.205 237 340.105 237C351.055 237 354.405 239.55 354.405 248.75C354.405 257.85 351.055 260.4 341.605 260.4C339.855 260.4 338.055 260.3 336.355 260.1V272H325.505ZM336.355 252.75H339.855C342.805 252.75 343.555 251.95 343.555 248.75C343.555 245.45 342.805 244.65 339.855 244.65H336.355V252.75ZM375.511 264.55H366.061L364.311 272H353.261L362.211 240.3C362.661 238.6 364.111 237.5 365.861 237.5H375.711C377.461 237.5 378.911 238.6 379.361 240.3L388.311 272H377.261L375.511 264.55ZM373.761 256.95L372.061 249.55C371.811 248.3 371.561 246.85 371.461 245.6H370.111C369.961 246.85 369.761 248.3 369.511 249.55L367.811 256.95H373.761ZM418.04 272H407.24V250.4C407.24 248.9 407.29 247.45 407.64 245.95L399.69 247.5L398.44 240.85L407.24 237.5H418.04V272ZM424.381 271.5L424.831 265C428.081 265.05 429.831 265.05 434.631 265.05C438.631 265.05 439.581 263.55 439.831 258.6C438.031 259.85 436.031 260.3 433.131 260.3C425.231 260.3 422.981 256.15 422.981 249.8C422.981 240.65 425.731 236.9 436.431 236.9C447.631 236.9 450.231 240.25 450.231 254.45C450.231 270.15 446.031 272.6 434.631 272.6C432.581 272.6 428.631 272.6 424.381 271.5ZM433.131 249.55C433.131 252.7 433.731 253.2 436.431 253.2C437.731 253.2 438.631 252.95 439.881 252.3C439.831 245.35 439.481 244.45 436.331 244.45C433.281 244.45 433.131 245.65 433.131 249.55ZM477.701 245.25H463.501L463.201 248.85L469.601 249.7C477.401 250.65 479.101 256.25 479.101 261.25C479.101 267.7 476.001 272.6 466.051 272.6C462.401 272.6 457.851 272.25 453.251 271.7L454.151 263.65C457.551 263.8 460.701 263.95 463.201 263.95C467.201 263.95 468.151 263.15 468.351 260.85C468.551 258.5 467.201 257.7 463.751 257.45L457.451 256.65C455.651 256.4 454.401 255 454.501 253.25L455.451 237.5H478.051L477.701 245.25ZM482.919 245.05L482.619 237.75C486.669 237.1 490.769 236.8 494.719 236.8C503.569 236.8 506.719 238.7 506.719 244.85C506.719 249.95 505.669 252.9 501.019 253.55V253.75C506.019 254.5 507.569 257 507.619 262.4C507.719 269.8 504.219 272.7 494.769 272.7C490.469 272.7 485.919 272.3 481.869 271.75L482.169 264.15C486.819 264.35 488.819 264.4 491.769 264.4C495.869 264.4 496.919 264.05 496.919 260.9C496.919 258.25 496.219 257.4 493.069 257.45L486.419 257.55V250.95H493.069C496.369 250.95 496.619 249.9 496.619 247.85C496.619 245.55 495.819 245.05 492.769 245.05H482.919Z" fill="#312A2A"/>
<path d="M7.207 327.8H22.885V346H20.337V330.062H9.781V346H7.207V327.8ZM36.6985 327.8C41.4305 327.8 44.2905 330.192 44.2905 334.144C44.2905 338.096 41.4305 340.488 36.6985 340.488H32.2005V346H29.6005V327.8H36.6985ZM36.6205 338.226C39.9485 338.226 41.6905 336.744 41.6905 334.144C41.6905 331.544 39.9485 330.062 36.6205 330.062H32.2005V338.226H36.6205ZM57.3911 346.208C51.8011 346.208 47.6931 342.23 47.6931 336.9C47.6931 331.57 51.8011 327.592 57.3911 327.592C62.9291 327.592 67.0371 331.544 67.0371 336.9C67.0371 342.256 62.9291 346.208 57.3911 346.208ZM57.3911 343.894C61.4211 343.894 64.4371 340.93 64.4371 336.9C64.4371 332.87 61.4211 329.906 57.3911 329.906C53.3091 329.906 50.2931 332.87 50.2931 336.9C50.2931 340.93 53.3091 343.894 57.3911 343.894ZM92.3521 336.874C92.3521 341.684 88.8421 344.544 82.7061 344.752V346.676H80.2881V344.752C74.1521 344.518 70.6161 341.658 70.6161 336.874C70.6161 332.064 74.1521 329.204 80.2881 328.97V327.124H82.7061V328.97C88.8161 329.204 92.3521 332.09 92.3521 336.874ZM82.7061 342.724C87.3341 342.438 89.8561 340.436 89.8561 336.848C89.8561 333.312 87.2561 331.284 82.7061 331.024V342.724ZM73.1381 336.874C73.1381 340.462 75.7641 342.438 80.2881 342.724V331.024C75.6601 331.31 73.1381 333.286 73.1381 336.874ZM99.9904 343.738H110.598V346H97.3904V327.8H110.234V330.062H99.9904V335.652H109.116V337.862H99.9904V343.738ZM123.783 346.208C118.271 346.208 114.163 342.282 114.163 336.9C114.163 331.518 118.271 327.592 123.809 327.592C126.617 327.592 129.061 328.554 130.725 330.426L129.035 332.064C127.631 330.582 125.915 329.906 123.913 329.906C119.805 329.906 116.763 332.87 116.763 336.9C116.763 340.93 119.805 343.894 123.913 343.894C125.915 343.894 127.631 343.192 129.035 341.71L130.725 343.348C129.061 345.22 126.617 346.208 123.783 346.208ZM143.105 346.208C137.593 346.208 133.485 342.282 133.485 336.9C133.485 331.518 137.593 327.592 143.131 327.592C145.939 327.592 148.383 328.554 150.047 330.426L148.357 332.064C146.953 330.582 145.237 329.906 143.235 329.906C139.127 329.906 136.085 332.87 136.085 336.9C136.085 340.93 139.127 343.894 143.235 343.894C145.237 343.894 146.953 343.192 148.357 341.71L150.047 343.348C148.383 345.22 145.939 346.208 143.105 346.208ZM154.669 346V327.8H157.243V341.84L168.007 327.8H170.399V346H167.851V331.986L157.061 346H154.669ZM185.303 346.208C179.713 346.208 175.605 342.23 175.605 336.9C175.605 331.57 179.713 327.592 185.303 327.592C190.841 327.592 194.949 331.544 194.949 336.9C194.949 342.256 190.841 346.208 185.303 346.208ZM185.303 343.894C189.333 343.894 192.349 340.93 192.349 336.9C192.349 332.87 189.333 329.906 185.303 329.906C181.221 329.906 178.205 332.87 178.205 336.9C178.205 340.93 181.221 343.894 185.303 343.894ZM213.244 327.8H215.844V346H213.244V337.888H202.792V346H200.192V327.8H202.792V335.626H213.244V327.8ZM236.392 346L234.39 341.45H224.718L222.716 346H220.038L228.28 327.8H230.854L239.122 346H236.392ZM225.628 339.37H233.48L229.554 330.452L225.628 339.37ZM245.433 327.8H258.251V346H255.703V330.062H247.643L247.461 335.392C247.227 342.62 246.109 346.208 242.521 346.208C242.001 346.208 241.507 346.156 240.883 346L241.065 343.686C241.377 343.764 241.611 343.79 241.897 343.79C244.159 343.79 244.939 341.112 245.147 335.47L245.433 327.8ZM272.942 334.144C277.258 334.144 279.65 336.094 279.65 339.89C279.65 343.92 277.024 346 272.474 346H264.96V327.8H267.534V334.144H272.942ZM272.37 343.946C275.386 343.946 277.05 342.568 277.05 339.942C277.05 337.368 275.412 336.198 272.37 336.198H267.534V343.946H272.37ZM297.588 327.8H300.188V346H297.588V337.888H287.136V346H284.536V327.8H287.136V335.626H297.588V327.8ZM314.886 334.144C319.202 334.144 321.594 336.094 321.594 339.89C321.594 343.92 318.968 346 314.418 346H306.904V327.8H309.478V334.144H314.886ZM324.48 346V327.8H327.054V346H324.48ZM314.314 343.946C317.33 343.946 318.994 342.568 318.994 339.942C318.994 337.368 317.356 336.198 314.314 336.198H309.478V343.946H314.314ZM336.366 343.738H346.974V346H333.766V327.8H346.61V330.062H336.366V335.652H345.492V337.862H336.366V343.738ZM367.217 327.8C371.949 327.8 374.809 330.192 374.809 334.144C374.809 338.096 371.949 340.488 367.217 340.488H362.719V346H360.119V327.8H367.217ZM367.139 338.226C370.467 338.226 372.209 336.744 372.209 334.144C372.209 331.544 370.467 330.062 367.139 330.062H362.719V338.226H367.139ZM382.066 343.738H392.674V346H379.466V327.8H392.31V330.062H382.066V335.652H391.192V337.862H382.066V343.738ZM418.051 327.8H420.599V346H397.797V327.8H400.371V343.738H407.937V327.8H410.485V343.738H418.051V327.8ZM429.9 343.738H440.508V346H427.3V327.8H440.144V330.062H429.9V335.652H439.026V337.862H429.9V343.738ZM458.683 327.8H461.283V346H458.683V337.888H448.231V346H445.631V327.8H448.231V335.626H458.683V327.8ZM467.999 346V327.8H470.573V341.84L481.337 327.8H483.729V346H481.181V331.986L470.391 346H467.999ZM496.475 327.8H503.781V346H501.233V340.696H496.215C495.981 340.696 495.747 340.696 495.513 340.67L491.873 346H489.117L493.147 340.228C490.573 339.37 489.117 337.29 489.117 334.352C489.117 330.192 492.003 327.8 496.475 327.8ZM491.743 334.326C491.743 337.004 493.329 338.512 496.423 338.512H501.233V330.062H496.579C493.485 330.062 491.743 331.518 491.743 334.326Z" fill="#312A2A"/>
<path d="M504 300L5.99999 300" stroke="#312A2A" stroke-width="5" stroke-linecap="round"/>
</svg>
