<svg width="40" height="40" viewBox="0 0 40 40" fill="none" xmlns="http://www.w3.org/2000/svg">
<path d="M34.5167 6.09083C34.5167 6.09083 37.7542 4.82833 37.4833 7.89416C37.3942 9.15666 36.585 13.5758 35.955 18.355L33.7967 32.5133C33.7967 32.5133 33.6167 34.5875 31.9975 34.9483C30.3792 35.3083 27.9508 33.6858 27.5008 33.325C27.1408 33.0542 20.7558 28.9958 18.5075 27.0125C17.8775 26.4708 17.1575 25.3892 18.5975 24.1267L28.04 15.1083C29.1192 14.0267 30.1983 11.5017 25.7017 14.5675L13.11 23.1342C13.11 23.1342 11.6708 24.0367 8.97334 23.225L3.12668 21.4208C3.12668 21.4208 0.968343 20.0683 4.65584 18.7158C13.65 14.4775 24.7125 10.1492 34.515 6.09083H34.5167Z" fill="#D9F0FF"/>
</svg>
