<svg width="147" height="16" viewBox="0 0 147 16" fill="none" xmlns="http://www.w3.org/2000/svg">
<path d="M3.73996 15.2026C3.23587 15.2026 2.77158 15.0766 2.34709 14.8246C1.93585 14.5725 1.60422 14.2409 1.35217 13.8297C1.10013 13.4052 0.974105 12.9409 0.974105 12.4368V3.64174C0.974105 3.13765 1.10013 2.67999 1.35217 2.26876C1.60422 1.84427 1.93585 1.506 2.34709 1.25395C2.77158 1.00191 3.23587 0.875885 3.73996 0.875885H15.2611V3.52235H4.29712C4.08487 3.52235 3.91242 3.58205 3.77976 3.70144C3.66037 3.82083 3.60068 3.99328 3.60068 4.21879V11.8597C3.60068 12.072 3.66037 12.2444 3.77976 12.3771C3.91242 12.4965 4.08487 12.5562 4.29712 12.5562H15.2611V15.2026H3.73996ZM17.2562 15.2026V6.4076C17.2562 5.90351 17.3822 5.44585 17.6342 5.03462C17.8863 4.62339 18.2179 4.29175 18.6292 4.03971C19.0536 3.78766 19.5113 3.66164 20.0021 3.66164H26.4094V6.26831H20.1016C20.0353 6.26831 19.9756 6.29485 19.9225 6.34791C19.8827 6.3877 19.8628 6.44077 19.8628 6.50709V15.2026H17.2562ZM30.5143 15.2026C30.0102 15.2026 29.5526 15.0766 29.1413 14.8246C28.7301 14.5725 28.3985 14.2409 28.1464 13.8297C27.8944 13.4184 27.7684 12.9608 27.7684 12.4567V6.4076C27.7684 5.90351 27.8944 5.44585 28.1464 5.03462C28.3985 4.62339 28.7301 4.29175 29.1413 4.03971C29.5526 3.78766 30.0102 3.66164 30.5143 3.66164H36.7425C37.2466 3.66164 37.7042 3.78766 38.1155 4.03971C38.54 4.29175 38.8716 4.62339 39.1104 5.03462C39.3624 5.44585 39.4884 5.90351 39.4884 6.4076V10.7454H30.375V12.3572C30.375 12.4235 30.3949 12.4832 30.4347 12.5363C30.4878 12.5761 30.5475 12.596 30.6138 12.596H39.4884V15.2026H30.5143ZM30.375 8.39743H36.8818V6.50709C36.8818 6.44077 36.8552 6.3877 36.8022 6.34791C36.7624 6.29485 36.7093 6.26831 36.643 6.26831H30.6138C30.5475 6.26831 30.4878 6.29485 30.4347 6.34791C30.3949 6.3877 30.375 6.44077 30.375 6.50709V8.39743ZM44.3114 15.2026C43.8074 15.2026 43.3431 15.0766 42.9186 14.8246C42.5073 14.5725 42.1757 14.2409 41.9236 13.8297C41.6849 13.4184 41.5655 12.9608 41.5655 12.4567V8.11885H50.6789V6.50709C50.6789 6.44077 50.6524 6.3877 50.5993 6.34791C50.5595 6.29485 50.5064 6.26831 50.4401 6.26831H41.5655V3.66164H50.5396C51.0437 3.66164 51.5013 3.78766 51.9126 4.03971C52.3371 4.29175 52.6687 4.62339 52.9075 5.03462C53.1595 5.44585 53.2856 5.90351 53.2856 6.4076V15.2026H44.3114ZM44.4109 12.596H50.6789V10.4668H44.1722V12.3572C44.1722 12.4235 44.1921 12.4832 44.2318 12.5363C44.2849 12.5761 44.3446 12.596 44.4109 12.596ZM58.1474 15.2026C57.6433 15.2026 57.1857 15.0766 56.7744 14.8246C56.3632 14.5725 56.0316 14.2409 55.7795 13.8297C55.5275 13.4184 55.4015 12.9608 55.4015 12.4567V0.119751H58.0081V3.66164H62.5051V6.26831H58.0081V12.3572C58.0081 12.4235 58.028 12.4832 58.0678 12.5363C58.1209 12.5761 58.1806 12.596 58.2469 12.596H62.5051V15.2026H58.1474ZM66.8325 15.2026C66.3285 15.2026 65.8708 15.0766 65.4596 14.8246C65.0483 14.5725 64.7167 14.2409 64.4647 13.8297C64.2126 13.4184 64.0866 12.9608 64.0866 12.4567V6.4076C64.0866 5.90351 64.2126 5.44585 64.4647 5.03462C64.7167 4.62339 65.0483 4.29175 65.4596 4.03971C65.8708 3.78766 66.3285 3.66164 66.8325 3.66164H73.0607C73.5648 3.66164 74.0225 3.78766 74.4337 4.03971C74.8582 4.29175 75.1898 4.62339 75.4286 5.03462C75.6806 5.44585 75.8067 5.90351 75.8067 6.4076V10.7454H66.6933V12.3572C66.6933 12.4235 66.7132 12.4832 66.753 12.5363C66.806 12.5761 66.8657 12.596 66.932 12.596H75.8067V15.2026H66.8325ZM66.6933 8.39743H73.2V6.50709C73.2 6.44077 73.1735 6.3877 73.1204 6.34791C73.0806 6.29485 73.0275 6.26831 72.9612 6.26831H66.932C66.8657 6.26831 66.806 6.29485 66.753 6.34791C66.7132 6.3877 66.6933 6.44077 66.6933 6.50709V8.39743ZM84.0455 15.2026V0.875885H86.9307L95.7258 11.3424V0.875885H98.3722V15.2026H95.487L86.672 4.71625V15.2026H84.0455ZM100.641 15.2026V0.875885H113.834V3.52235H103.288V6.70608H111.764V9.37244H103.288V15.2026H100.641ZM120.309 15.2026V3.52235H114.459V0.875885H128.786V3.52235H122.956V15.2026H120.309ZM130.234 6.12903V1.05497H132.841V3.38307C132.841 3.82083 132.728 4.23206 132.503 4.61676C132.277 5.00146 131.965 5.32646 131.567 5.59177C131.169 5.85708 130.725 6.03617 130.234 6.12903ZM137.155 15.2026C136.651 15.2026 136.193 15.0766 135.782 14.8246C135.371 14.5725 135.039 14.2409 134.787 13.8297C134.535 13.4184 134.409 12.9608 134.409 12.4567V12.0189H137.016V12.3572C137.016 12.4235 137.036 12.4832 137.076 12.5363C137.129 12.5761 137.188 12.596 137.255 12.596H143.284C143.35 12.596 143.403 12.5761 143.443 12.5363C143.496 12.4832 143.523 12.4235 143.523 12.3572V10.9842C143.523 10.9179 143.496 10.8648 143.443 10.825C143.403 10.772 143.35 10.7454 143.284 10.7454H137.155C136.651 10.7454 136.193 10.6194 135.782 10.3674C135.371 10.1153 135.039 9.78368 134.787 9.37244C134.535 8.96121 134.409 8.50355 134.409 7.99946V6.4076C134.409 5.90351 134.535 5.44585 134.787 5.03462C135.039 4.62339 135.371 4.29175 135.782 4.03971C136.193 3.78766 136.651 3.66164 137.155 3.66164H143.383C143.901 3.66164 144.365 3.78766 144.776 4.03971C145.187 4.29175 145.519 4.62339 145.771 5.03462C146.023 5.44585 146.149 5.90351 146.149 6.4076V6.84536H143.523V6.50709C143.523 6.44077 143.496 6.3877 143.443 6.34791C143.403 6.29485 143.35 6.26831 143.284 6.26831H137.255C137.188 6.26831 137.129 6.29485 137.076 6.34791C137.036 6.3877 137.016 6.44077 137.016 6.50709V7.88007C137.016 7.9464 137.036 8.0061 137.076 8.05916C137.129 8.09896 137.188 8.11885 137.255 8.11885H143.383C143.901 8.11885 144.365 8.24488 144.776 8.49692C145.187 8.74897 145.519 9.0806 145.771 9.49183C146.023 9.90307 146.149 10.3607 146.149 10.8648V12.4567C146.149 12.9608 146.023 13.4184 145.771 13.8297C145.519 14.2409 145.187 14.5725 144.776 14.8246C144.365 15.0766 143.901 15.2026 143.383 15.2026H137.155Z" fill="url(#paint0_linear_2_354)"/>
<defs>
<linearGradient id="paint0_linear_2_354" x1="3.17618" y1="8.46815" x2="150.202" y2="6.80997" gradientUnits="userSpaceOnUse">
<stop stop-color="#42A6E3"/>
<stop offset="1" stop-color="#FF56F6"/>
</linearGradient>
</defs>
</svg>
