<svg width="33" height="39" viewBox="0 0 33 39" fill="none" xmlns="http://www.w3.org/2000/svg">
<g clip-path="url(#clip0_4_37)">
<path d="M11.5547 8.32031C11.8047 8.32031 12.0195 8.23047 12.1992 8.05078C12.3789 7.87109 12.4688 7.65625 12.4688 7.40625C12.4688 7.15625 12.3789 6.94141 12.1992 6.76172C12.0195 6.58203 11.8047 6.49219 11.5547 6.49219C11.3047 6.49219 11.0938 6.58203 10.9219 6.76172C10.75 6.94141 10.6641 7.15625 10.6641 7.40625C10.6641 7.65625 10.75 7.87109 10.9219 8.05078C11.0938 8.23047 11.3047 8.32031 11.5547 8.32031ZM21.4453 8.32031C21.6953 8.32031 21.9062 8.23047 22.0781 8.05078C22.25 7.87109 22.3359 7.65625 22.3359 7.40625C22.3359 7.15625 22.25 6.94141 22.0781 6.76172C21.9062 6.58203 21.6953 6.49219 21.4453 6.49219C21.1953 6.49219 20.9805 6.58203 20.8008 6.76172C20.6211 6.94141 20.5312 7.15625 20.5312 7.40625C20.5312 7.65625 20.6211 7.87109 20.8008 8.05078C20.9805 8.23047 21.1953 8.32031 21.4453 8.32031ZM2.41406 12.6328C3.07031 12.6328 3.63281 12.8672 4.10156 13.3359C4.57031 13.8047 4.80469 14.3672 4.80469 15.0234V25.1016C4.80469 25.7734 4.57422 26.3438 4.11328 26.8125C3.65234 27.2812 3.08594 27.5156 2.41406 27.5156C1.74219 27.5156 1.17188 27.2812 0.703125 26.8125C0.234375 26.3438 0 25.7734 0 25.1016V15.0234C0 14.3672 0.234375 13.8047 0.703125 13.3359C1.17188 12.8672 1.74219 12.6328 2.41406 12.6328ZM27.2578 13.0781V28.6875C27.2578 29.4062 27.0078 30.0156 26.5078 30.5156C26.0078 31.0156 25.4062 31.2656 24.7031 31.2656H22.9453V36.5859C22.9453 37.2578 22.7109 37.8281 22.2422 38.2969C21.7734 38.7656 21.2031 39 20.5312 39C19.8594 39 19.2891 38.7656 18.8203 38.2969C18.3516 37.8281 18.1172 37.2578 18.1172 36.5859V31.2656H14.8828V36.5859C14.8828 37.2578 14.6484 37.8281 14.1797 38.2969C13.7109 38.7656 13.1406 39 12.4688 39C11.8125 39 11.25 38.7656 10.7812 38.2969C10.3125 37.8281 10.0781 37.2578 10.0781 36.5859L10.0547 31.2656H8.32031C7.60156 31.2656 6.99219 31.0156 6.49219 30.5156C5.99219 30.0156 5.74219 29.4062 5.74219 28.6875V13.0781H27.2578ZM21.8203 3.58594C23.4922 4.44531 24.8281 5.64453 25.8281 7.18359C26.8281 8.72266 27.3281 10.4062 27.3281 12.2344H5.64844C5.64844 10.4062 6.14844 8.72266 7.14844 7.18359C8.14844 5.64453 9.49219 4.44531 11.1797 3.58594L9.51562 0.515625C9.40625 0.3125 9.44531 0.15625 9.63281 0.046875C9.83594 -0.046875 9.99219 0 10.1016 0.1875L11.7891 3.28125C13.2734 2.625 14.8438 2.29688 16.5 2.29688C18.1562 2.29688 19.7266 2.625 21.2109 3.28125L22.8984 0.1875C23.0078 0 23.1641 -0.046875 23.3672 0.046875C23.5547 0.15625 23.5938 0.3125 23.4844 0.515625L21.8203 3.58594ZM33 15.0234V25.1016C33 25.7734 32.7656 26.3438 32.2969 26.8125C31.8281 27.2812 31.2578 27.5156 30.5859 27.5156C29.9297 27.5156 29.3672 27.2812 28.8984 26.8125C28.4297 26.3438 28.1953 25.7734 28.1953 25.1016V15.0234C28.1953 14.3516 28.4297 13.7852 28.8984 13.3242C29.3672 12.8633 29.9297 12.6328 30.5859 12.6328C31.2578 12.6328 31.8281 12.8633 32.2969 13.3242C32.7656 13.7852 33 14.3516 33 15.0234Z" fill="white"/>
</g>
<defs>
<clipPath id="clip0_4_37">
<rect width="33" height="39" fill="white"/>
</clipPath>
</defs>
</svg>
