<svg width="52" height="8" viewBox="0 0 52 8" fill="none" xmlns="http://www.w3.org/2000/svg">
<path d="M1 4.5C0.723858 4.5 0.5 4.27614 0.5 4C0.5 3.72386 0.723858 3.5 1 3.5L1 4.5ZM51.3536 3.64644C51.5488 3.8417 51.5488 4.15829 51.3536 4.35355L48.1716 7.53553C47.9763 7.73079 47.6597 7.73079 47.4645 7.53553C47.2692 7.34027 47.2692 7.02369 47.4645 6.82842L50.2929 4L47.4645 1.17157C47.2692 0.976307 47.2692 0.659724 47.4645 0.464462C47.6597 0.2692 47.9763 0.2692 48.1716 0.464462L51.3536 3.64644ZM1 3.5L51 3.5L51 4.5L1 4.5L1 3.5Z" fill="white"/>
</svg>
