<svg width="30" height="30" viewBox="0 0 30 30" fill="none" xmlns="http://www.w3.org/2000/svg">
<g clip-path="url(#clip0_7_9)">
<path d="M13.4794 0.826351C8.64891 1.33548 4.27674 4.42665 2.15977 8.83428C-0.939301 15.2857 1.21405 22.9809 7.21577 26.9303C12.8683 30.6397 20.3541 29.8324 25.1264 24.9956C26.2903 23.8101 27.0906 22.69 27.8108 21.2208C30.4734 15.773 29.3749 9.24886 25.0682 4.93578C22.0127 1.88826 17.7715 0.382679 13.4794 0.826351ZM14.4178 5.9104V9.91073H11.8498C10.4312 9.91073 9.25999 9.89619 9.23817 9.87437C9.13632 9.77254 9.71103 7.75056 10.1693 6.62319C11.1078 4.28118 12.41 2.6665 13.8359 2.07736C14.0541 1.99008 14.2796 1.91008 14.3305 1.91008C14.396 1.91008 14.4178 2.76105 14.4178 5.9104ZM16.4184 2.20101C17.0368 2.50649 17.6188 2.9938 18.1425 3.65567C19.3356 5.13943 20.1213 6.95776 20.776 9.70708L20.8197 9.91073H18.2007H15.5818V5.90313V1.89553L15.7855 1.93917C15.8946 1.96826 16.1783 2.08464 16.4184 2.20101ZM11.1733 2.76105C9.90745 4.25209 8.77258 6.72502 8.22697 9.16158L8.06692 9.91073H5.49164C3.44014 9.91073 2.92363 9.88891 2.92363 9.81618C2.92363 9.67799 3.53471 8.50698 3.92028 7.91057C5.53529 5.42309 7.95053 3.51748 10.7441 2.55013C11.1878 2.39739 11.5516 2.27374 11.5661 2.27374C11.5807 2.27374 11.3988 2.49194 11.1733 2.76105ZM19.1101 2.49922C21.8382 3.36474 24.4498 5.394 26.0794 7.91057C26.4649 8.50698 27.076 9.67799 27.076 9.81618C27.076 9.88891 26.5595 9.91073 24.508 9.91073H21.9327L21.6927 8.90701C21.1034 6.44136 20.0776 4.23027 18.8264 2.76105C18.6009 2.49922 18.4626 2.28829 18.5136 2.31011C18.5572 2.32466 18.8337 2.40466 19.1101 2.49922ZM7.8705 11.0526C7.8705 11.089 7.81958 11.5327 7.76138 12.0564C7.70318 12.5728 7.65226 13.2637 7.65226 13.5765C7.65226 14.2602 7.74683 14.4202 8.1615 14.4202C8.60526 14.4202 8.68528 14.2675 8.75803 13.2346C8.78713 12.7473 8.8526 12.0855 8.88898 11.7654C8.93263 11.4454 8.96173 11.1472 8.96173 11.0963C8.96173 11.0236 9.52916 11.0017 11.6898 11.0017H14.4178V15.0021V19.0024H11.6898C9.52916 19.0024 8.96173 18.9806 8.96173 18.9078C8.96173 18.8569 8.93263 18.5587 8.88898 18.2387C8.8526 17.9187 8.78713 17.2568 8.75803 16.7695C8.68528 15.7439 8.60526 15.5839 8.17605 15.5839C7.74683 15.5839 7.65226 15.7367 7.65226 16.4131C7.65226 16.7404 7.70318 17.4241 7.76138 17.9478C7.81958 18.4642 7.8705 18.9151 7.8705 18.9442C7.8705 18.9806 6.64833 19.0024 5.157 19.0024H2.43621L2.24707 18.2169C1.93425 16.944 1.87605 16.4204 1.87605 15.0021C1.87605 13.5838 1.93425 13.0601 2.24707 11.78L2.43621 11.0017H5.157C6.64833 11.0017 7.8705 11.0236 7.8705 11.0526ZM21.0961 11.6491C21.2853 13.0601 21.3507 14.9439 21.2707 16.3549C21.2198 17.0968 21.147 17.9914 21.0961 18.3551L21.0088 19.0024H18.2953H15.5818V15.0021V11.0017H18.2953H21.0088L21.0961 11.6491ZM27.7526 11.78C28.0654 13.0601 28.1236 13.5838 28.1236 15.0021C28.1236 16.4204 28.0654 16.944 27.7526 18.2169L27.5634 19.0024H24.8427C23.2713 19.0024 22.1291 18.9733 22.1291 18.9369C22.1291 18.9006 22.1801 18.4351 22.2528 17.8968C22.3328 17.2204 22.3692 16.3549 22.3692 15.0021C22.3692 13.6492 22.3328 12.7837 22.2528 12.1073C22.1801 11.5691 22.1291 11.1036 22.1291 11.0672C22.1291 11.0308 23.2713 11.0017 24.8427 11.0017H27.5634L27.7526 11.78ZM8.22697 20.8353C8.76531 23.2791 9.90745 25.752 11.166 27.2358L11.5807 27.7231L11.2024 27.6067C10.0602 27.2722 8.40884 26.4575 7.36854 25.7084C6.09545 24.7992 4.8369 23.49 3.9712 22.159C3.57109 21.5553 2.92363 20.3189 2.92363 20.1734C2.92363 20.1152 3.61474 20.0934 5.49164 20.0934H8.06692L8.22697 20.8353ZM14.4178 24.101V28.1086L14.2214 28.065C14.105 28.0359 13.8213 27.9195 13.5812 27.8031C11.8207 26.9376 10.2639 24.421 9.40549 21.0316C9.28909 20.5734 9.20907 20.1807 9.23089 20.1443C9.24544 20.1152 10.424 20.0934 11.8426 20.0934H14.4178V24.101ZM20.776 20.2898C20.1213 23.0464 19.3356 24.8647 18.1425 26.3484C17.466 27.1994 16.513 27.8904 15.7855 28.065L15.5818 28.1086V24.101V20.0934H18.2007H20.8197L20.776 20.2898ZM27.076 20.1879C27.076 20.3261 26.4649 21.4971 26.0794 22.0936C25.0536 23.6719 23.6641 25.0611 22.0782 26.0866C21.1689 26.6757 19.7794 27.3231 18.8046 27.6067L18.4263 27.7231L18.8337 27.2431C20.0776 25.7739 21.1034 23.5628 21.6927 21.0898L21.9327 20.0934H24.508C26.5595 20.0934 27.076 20.1152 27.076 20.1879Z" fill="white"/>
</g>
<defs>
<clipPath id="clip0_7_9">
<rect width="30" height="30" fill="white"/>
</clipPath>
</defs>
</svg>
