<svg width="40" height="40" viewBox="0 0 40 40" fill="none" xmlns="http://www.w3.org/2000/svg">
<path d="M39.405 8.22833C38.0133 8.845 36.5183 9.26166 34.9467 9.45C36.5683 8.47965 37.7816 6.95244 38.36 5.15333C36.8364 6.05831 35.1689 6.69532 33.43 7.03666C32.2606 5.7881 30.7118 4.96054 29.0239 4.68245C27.336 4.40437 25.6035 4.69132 24.0954 5.49875C22.5873 6.30619 21.388 7.58893 20.6836 9.14784C19.9792 10.7067 19.8092 12.4546 20.2 14.12C17.1128 13.965 14.0927 13.1626 11.3357 11.7648C8.5787 10.3671 6.1464 8.40527 4.19667 6.00666C3.53 7.15666 3.14667 8.49 3.14667 9.91C3.14592 11.1883 3.46072 12.4471 4.06313 13.5746C4.66554 14.702 5.53694 15.6634 6.6 16.3733C5.36713 16.3341 4.16145 16.001 3.08333 15.4017V15.5017C3.08321 17.2946 3.70339 19.0323 4.83864 20.42C5.97389 21.8077 7.55429 22.7599 9.31167 23.115C8.16797 23.4245 6.9689 23.4701 5.805 23.2483C6.30083 24.791 7.26666 26.14 8.56728 27.1065C9.8679 28.073 11.4382 28.6086 13.0583 28.6383C10.3081 30.7974 6.91148 31.9685 3.415 31.9633C2.79563 31.9635 2.17679 31.9273 1.56167 31.855C5.11079 34.137 9.24223 35.348 13.4617 35.3433C27.745 35.3433 35.5533 23.5133 35.5533 13.2533C35.5533 12.92 35.545 12.5833 35.53 12.25C37.0488 11.1516 38.3599 9.79149 39.4017 8.23333L39.405 8.22833V8.22833Z" fill="#D9F0FF"/>
</svg>
